<svg width="320" height="568" viewBox="0 0 320 568" fill="none" xmlns="http://www.w3.org/2000/svg">
<path d="M-352 973.5L671.406 973.5M-352 853.5L671.406 853.5M-352 733.5L671.406 733.5M-351.408 -436L-351.408 1004M-352 613.5L671.406 613.5M-237.696 -436L-237.696 1004M-352 493.5L671.406 493.5M-123.984 -436L-123.984 1004M-352 373.5L671.406 373.5M-10.2718 -436L-10.2719 1004M-352 253.5L671.406 253.5M103.44 -436L103.44 1004M-352 133.5L671.406 133.5M217.152 -436L217.152 1004M-352 13.5L671.406 13.5M330.864 -436L330.864 1004M-352 -286.5H671.406M615.144 -436L615.144 1004M-352 -106.5H671.406M444.576 -436L444.576 1004M-352 -406.5H671.406M-352 913.5L671.406 913.5M-352 793.5L671.406 793.5M-352 673.5L671.406 673.5M-294.552 -436L-294.552 1004M-352 553.5L671.406 553.5M-180.84 -436L-180.84 1004M-352 433.5L671.406 433.5M-67.1278 -436L-67.1278 1004M-352 313.5L671.406 313.5M46.5842 -436L46.5841 1004M-352 193.5L671.406 193.5M160.296 -436L160.296 1004M-352 73.5L671.406 73.5M274.008 -436L274.008 1004M-352 -226.5H671.406M558.288 -436L558.288 1004M-352 -46.5H671.406M387.72 -436L387.72 1004M-352 -346.5H671.406M672 -436L672 1004M-352 -166.5H671.406M501.432 -436L501.432 1004" stroke="black"/>
</svg>
